<svg width="1288" height="771" viewBox="0 0 1288 771" fill="none" xmlns="http://www.w3.org/2000/svg">
<path d="M82.8396 110.962L388.327 136.893L572.639 60.0482M608.459 45.1141L749.233 121.022M608.459 45.1141L388.327 148.08L82.8396 197.92M608.459 45.1141L572.639 60.0482M749.233 121.022L969.364 328.732L1036.2 583.846M749.233 121.022C714.788 172.288 665.712 235.332 618.56 293.081M1036.2 583.846C1036.2 583.846 1088.81 640.918 1122.51 677.487M1036.2 583.846L817.789 710.744L618.56 293.081M78.479 320.313L294.743 323.403M294.743 323.403L572.639 60.0482M294.743 323.403C321.567 294.785 392.861 238.132 463.439 240.465L618.56 293.081M271.622 545.007H402.647L500.915 431.703C527.83 401.371 572.268 349.778 618.56 293.081" stroke="#2E2E2E" stroke-width="6"/>
<path d="M1137.14 3.50269L984.749 79.3718M967.258 88.08L959.238 327.959M967.258 88.08L984.749 79.3718M967.258 88.08C953.043 116.535 911.688 167.801 859.991 145.229L753.504 113.374V101.542C755.325 99.722 808.568 31.4609 864.087 24.6348C884.459 28.3608 937.112 44.5246 984.749 79.3718M959.238 327.959L984.461 321.046M959.238 327.959C959.238 327.959 968.716 325.361 984.461 321.046M1191.83 408.162L984.461 321.046M984.461 321.046L1209.32 259.422C1136.01 279.513 1031.85 308.059 984.461 321.046ZM604.695 310.876L634.275 483.804L647.472 575.274C640.646 627.304 637.005 734.277 677.052 745.927L697.53 755.938C732.722 770.956 806.02 783.061 817.67 711.341" stroke="#2E2E2E" stroke-width="6"/>
<circle cx="611.68" cy="302.672" r="28.7284" fill="#2E2E2E"/>
<circle cx="417.21" cy="536.919" r="28.7284" fill="#2E2E2E"/>
<circle cx="642.618" cy="589.956" r="28.7284" fill="#2E2E2E"/>
<circle cx="1027.14" cy="581.116" r="28.7284" fill="#2E2E2E"/>
<circle cx="966.645" cy="327.37" r="28.7284" fill="#2E2E2E"/>
<circle cx="974.994" cy="89.041" r="28.7284" fill="#2E2E2E"/>
<circle cx="752.895" cy="117.61" r="28.7284" fill="#2E2E2E"/>
<circle cx="583.357" cy="46.8376" r="28.7284" fill="#2E2E2E"/>
<circle cx="391.765" cy="142.701" r="28.7284" fill="#2E2E2E"/>
<circle cx="300.778" cy="331.034" r="28.7284" fill="#2E2E2E"/>
<circle cx="823.351" cy="709.905" r="28.7284" fill="#2E2E2E"/>
<rect x="660.413" y="730.719" width="39.7778" height="39.7778" fill="#2E2E2E"/>
<rect x="714.124" y="511.117" width="39.7778" height="39.7778" fill="#2E2E2E"/>
<rect x="898.723" y="632.193" width="39.7778" height="39.7778" fill="#2E2E2E"/>
<rect x="1064.56" y="621.109" width="39.7778" height="39.7778" fill="#2E2E2E"/>
<rect x="987.359" y="449.3" width="39.7778" height="39.7778" fill="#2E2E2E"/>
<rect x="1090.53" y="352.951" width="39.7778" height="39.7778" fill="#2E2E2E"/>
<rect x="1110.42" y="251.912" width="39.7778" height="39.7778" fill="#2E2E2E"/>
<rect x="857.592" y="210.105" width="39.7778" height="39.7778" fill="#2E2E2E"/>
<rect x="642.304" y="53.1345" width="39.7778" height="39.7778" fill="#2E2E2E"/>
<rect x="469.613" y="67.5777" width="39.7778" height="39.7778" fill="#2E2E2E"/>
<rect x="469.613" y="118.443" width="39.7778" height="39.7778" fill="#2E2E2E"/>
<rect x="449.724" y="219.232" width="39.7778" height="39.7778" fill="#2E2E2E"/>
<rect x="186.353" y="161.794" width="39.7778" height="39.7778" fill="#2E2E2E"/>
<rect x="146.575" y="302.305" width="39.7778" height="39.7778" fill="#2E2E2E"/>
<rect x="320.607" y="525.87" width="39.7778" height="39.7778" fill="#2E2E2E"/>
<rect x="479.796" y="407.184" width="39.7778" height="39.7778" fill="#2E2E2E"/>
<rect x="613.89" y="460.247" width="39.7778" height="39.7778" fill="#2E2E2E"/>
<rect x="186.353" y="92.9124" width="39.7778" height="39.7778" fill="#2E2E2E"/>
<rect x="842.384" y="126.45" width="39.7778" height="39.7778" fill="#2E2E2E"/>
<rect x="842.384" y="7.05984" width="39.7778" height="39.7778" fill="#2E2E2E"/>
<rect x="1032.72" y="29.4778" width="39.7778" height="39.7778" fill="#2E2E2E"/>
<path d="M94.6016 502V325.9H6.40161V286H222.402V325.9H134.502V502H94.6016ZM285.938 502C278.338 502 271.338 500.1 264.938 496.3C258.738 492.5 253.738 487.5 249.938 481.3C246.138 474.9 244.238 467.9 244.238 460.3V286H283.838V458.5C283.838 459.5 284.138 460.4 284.738 461.2C285.538 461.8 286.438 462.1 287.438 462.1H416.438C417.438 462.1 418.338 461.8 419.138 461.2C419.938 460.4 420.338 459.5 420.338 458.5V286H460.238V460.3C460.238 467.9 458.338 474.9 454.538 481.3C450.738 487.5 445.638 492.5 439.238 496.3C433.038 500.1 426.138 502 418.538 502H285.938ZM665.476 502L600.376 424.3H652.276L708.676 490.9V502H665.476ZM493.276 502V286.3H667.276C674.876 286.3 681.876 288.2 688.276 292C694.676 295.8 699.776 300.9 703.576 307.3C707.376 313.5 709.276 320.4 709.276 328V386.2C709.276 393.8 707.376 400.8 703.576 407.2C699.776 413.6 694.676 418.7 688.276 422.5C681.876 426.1 674.876 427.9 667.276 427.9L532.876 428.2V502H493.276ZM536.476 388H665.476C666.476 388 667.376 387.7 668.176 387.1C668.976 386.5 669.376 385.7 669.376 384.7V329.5C669.376 328.5 668.976 327.7 668.176 327.1C667.376 326.3 666.476 325.9 665.476 325.9H536.476C535.476 325.9 534.576 326.3 533.776 327.1C533.176 327.7 532.876 328.5 532.876 329.5V384.7C532.876 385.7 533.176 386.5 533.776 387.1C534.576 387.7 535.476 388 536.476 388ZM736.634 502V286H775.934V502H736.634ZM804.995 502V286H848.495L981.095 443.8V286H1020.99V502H977.495L844.595 343.9V502H804.995ZM1096.3 502C1088.7 502 1081.7 500.1 1075.3 496.3C1069.1 492.5 1064.1 487.5 1060.3 481.3C1056.5 474.9 1054.6 467.9 1054.6 460.3V327.7C1054.6 320.1 1056.5 313.2 1060.3 307C1064.1 300.6 1069.1 295.5 1075.3 291.7C1081.7 287.9 1088.7 286 1096.3 286H1228.6C1236.2 286 1243.2 287.9 1249.6 291.7C1256 295.5 1261.1 300.6 1264.9 307C1268.7 313.2 1270.6 320.1 1270.6 327.7V344.5H1230.7V329.5C1230.7 328.5 1230.3 327.7 1229.5 327.1C1228.7 326.3 1227.8 325.9 1226.8 325.9H1097.8C1096.8 325.9 1095.9 326.3 1095.1 327.1C1094.5 327.7 1094.2 328.5 1094.2 329.5V458.5C1094.2 459.5 1094.5 460.4 1095.1 461.2C1095.9 461.8 1096.8 462.1 1097.8 462.1H1226.8C1227.8 462.1 1228.7 461.8 1229.5 461.2C1230.3 460.4 1230.7 459.5 1230.7 458.5V419.5H1181.8V379.6H1270.6V460.3C1270.6 467.9 1268.7 474.9 1264.9 481.3C1261.1 487.5 1256 492.5 1249.6 496.3C1243.2 500.1 1236.2 502 1228.6 502H1096.3Z" fill="#D5D6D7"/>
</svg>
